<?xml version="1.0" standalone="no"?>
<!DOCTYPE svg PUBLIC "-//W3C//DTD SVG 20010904//EN"
 "http://www.w3.org/TR/2001/REC-SVG-20010904/DTD/svg10.dtd">
<svg version="1.0" xmlns="http://www.w3.org/2000/svg"
 width="1803.000000pt" height="1803.000000pt" viewBox="0 0 1803.000000 1803.000000"
 preserveAspectRatio="xMidYMid meet">
<metadata>
Created by potrace 1.14, written by Peter Selinger 2001-2017
</metadata>
<g transform="translate(0.000000,1803.000000) scale(0.100000,-0.100000)"
fill="#000000" stroke="none">
<path d="M16926 16371 c-3 -5 -18 -11 -33 -14 -62 -11 -272 -57 -323 -71 -88
-24 -174 -72 -244 -136 -37 -33 -94 -74 -129 -91 -198 -100 -288 -169 -630
-482 -255 -234 -309 -281 -393 -342 -53 -39 -84 -72 -137 -150 -38 -55 -120
-158 -182 -230 -163 -189 -210 -254 -266 -374 -87 -183 -92 -192 -162 -267
-48 -52 -146 -130 -332 -265 -144 -105 -308 -227 -364 -271 -101 -80 -101 -81
-102 -127 l-2 -46 -6 38 -6 38 -95 -86 c-52 -47 -176 -150 -275 -228 -212
-167 -402 -325 -430 -357 -38 -44 -166 -140 -219 -164 -64 -30 -121 -46 -161
-46 -97 0 -183 -72 -298 -247 -51 -76 -96 -128 -183 -210 -135 -127 -172 -149
-264 -155 -112 -8 -140 -34 -254 -232 -63 -110 -92 -139 -318 -323 -116 -95
-208 -179 -242 -220 -30 -38 -73 -81 -95 -98 -50 -36 -97 -104 -112 -159 -12
-45 -6 -175 10 -205 16 -28 78 -80 106 -87 42 -10 146 16 235 59 26 13 90 66
150 127 110 110 406 436 482 530 27 34 66 67 103 88 67 37 142 110 262 260
108 133 144 157 237 157 65 0 71 2 83 25 7 14 15 41 18 61 7 49 50 106 127
170 35 28 64 58 66 66 2 7 7 11 12 8 5 -3 24 7 42 23 49 43 302 232 389 291
42 28 87 51 100 51 42 0 126 27 157 50 30 22 66 84 93 158 17 48 85 111 162
152 37 19 67 42 68 50 0 10 2 11 6 3 3 -9 17 -6 50 11 86 46 117 7 117 -149 0
-69 -8 -131 -23 -200 -13 -55 -27 -122 -32 -148 -11 -68 -16 -80 -58 -150
-108 -179 -137 -284 -146 -527 -3 -80 -10 -163 -16 -185 -24 -93 -41 -1792
-19 -1892 6 -25 15 -208 20 -406 9 -322 13 -376 35 -487 14 -69 25 -145 25
-170 0 -44 14 -80 54 -135 17 -23 18 -31 7 -81 -18 -78 -15 -195 9 -326 11
-62 29 -196 40 -298 11 -102 26 -241 35 -310 9 -79 15 -215 15 -371 0 -242 7
-329 45 -546 17 -96 13 -120 -33 -233 -38 -93 -49 -165 -57 -350 -7 -178 -19
-264 -45 -335 -11 -30 -29 -81 -41 -112 -22 -62 -45 -232 -51 -375 -2 -49 -6
-88 -10 -88 -13 0 -9 -38 5 -44 6 -4 2 -4 -9 -2 -17 3 -20 -1 -16 -16 2 -10 1
-18 -4 -16 -5 2 -9 -1 -9 -7 0 -5 7 -8 15 -7 8 2 5 -4 -7 -12 -14 -10 -20 -24
-18 -37 4 -17 2 -19 -11 -8 -12 10 -13 9 -8 -6 5 -13 4 -16 -4 -11 -8 5 -10 2
-5 -9 4 -13 7 -14 14 -3 6 9 8 6 6 -9 0 -12 -3 -20 -5 -18 -9 8 -29 -21 -24
-34 3 -8 1 -12 -4 -9 -5 3 -10 -20 -12 -52 -2 -54 -1 -59 20 -63 l23 -4 -22
-2 c-13 0 -23 -2 -24 -3 -1 -2 -7 -84 -14 -183 l-13 -180 -52 -135 c-212 -550
-246 -650 -227 -662 9 -6 8 -8 -3 -8 -11 0 -22 -20 -33 -58 -10 -31 -32 -102
-49 -156 -25 -83 -29 -105 -20 -135 6 -20 15 -64 21 -97 6 -34 32 -114 58
-179 69 -178 128 -231 244 -223 48 4 65 10 89 33 29 28 31 34 29 96 -1 36 2
72 6 80 8 12 6 12 -8 0 -19 -15 -23 -1 -5 17 9 9 9 12 0 12 -7 0 -12 5 -12 11
0 5 4 8 8 5 5 -3 9 1 9 9 0 8 -4 15 -8 15 -13 0 -19 32 -9 45 8 10 8 15 -1 21
-8 5 -10 3 -4 -7 7 -12 6 -12 -6 0 -11 10 -11 15 -1 18 6 3 12 9 12 14 0 6 -4
8 -9 4 -5 -3 -12 -1 -15 4 -4 5 -1 13 4 16 8 5 6 13 -6 26 -9 10 -21 16 -27
12 -6 -3 -7 -1 -3 6 4 6 12 9 17 6 14 -9 11 5 -5 20 -10 11 -12 25 -5 60 11
57 20 75 79 150 137 173 172 296 139 479 -16 88 -3 125 81 226 82 99 87 117
79 268 -6 115 2 152 41 187 27 24 41 50 51 92 6 29 4 33 -15 34 -17 1 -18 2
-3 6 16 4 18 12 12 68 -9 80 7 148 48 212 24 39 32 63 37 123 5 61 12 84 37
124 47 72 63 158 63 342 l0 158 42 120 c38 113 42 131 48 267 4 80 10 151 13
156 13 21 67 249 67 282 0 20 -9 90 -20 156 -17 106 -20 178 -22 628 -2 333 0
507 7 507 7 0 7 3 0 8 -11 8 -13 31 -4 47 4 6 5 18 3 27 -2 10 -6 26 -8 35 -2
10 -1 23 3 28 8 15 11 38 3 30 -4 -4 -7 -12 -7 -18 0 -5 -6 -12 -14 -15 -9 -3
-11 0 -7 7 4 7 0 23 -9 38 -10 14 -12 22 -4 18 9 -6 10 -2 5 16 -4 13 -8 30
-8 37 -1 6 -8 12 -17 12 -10 0 -12 3 -5 8 8 5 5 32 -11 97 -13 50 -29 142 -35
205 -7 63 -16 149 -21 190 -5 41 -13 120 -18 175 -5 59 -19 125 -32 160 -35
92 -31 165 12 242 l34 62 -33 163 c-47 236 -50 273 -57 693 -3 209 -12 472
-20 585 -16 239 -17 307 -5 490 26 399 50 580 97 723 36 109 49 131 107 170
34 24 33 53 -5 129 -37 73 -38 67 40 302 38 115 68 187 84 205 37 40 47 83 47
205 1 168 13 213 101 352 42 65 99 166 126 224 56 116 104 183 265 372 174
204 252 270 498 420 323 197 333 204 383 285 15 23 53 69 84 101 50 51 81 70
225 140 239 115 268 137 548 407 150 145 177 166 340 269 95 60 432 399 462
464 19 43 19 43 -1 85 -22 46 -157 186 -209 217 -34 21 -145 29 -156 11z
m-2790 -8347 c1 -9 -1 -13 -4 -9 -4 4 -7 10 -7 13 0 4 -4 14 -9 22 -7 12 -6
13 4 3 8 -7 15 -20 16 -29z m-638 -3171 c-10 -2 -26 -2 -35 0 -10 3 -2 5 17 5
19 0 27 -2 18 -5z m-114 -1601 c3 -5 -1 -9 -9 -9 -8 0 -12 4 -9 9 3 4 7 8 9 8
2 0 6 -4 9 -8z"/>
<path d="M7870 13103 c-146 -24 -313 -135 -386 -255 -44 -72 -122 -134 -238
-187 -48 -22 -111 -60 -139 -83 -149 -124 -409 -358 -470 -424 -72 -77 -154
-134 -195 -134 -16 0 -30 -13 -50 -47 -66 -114 -156 -181 -275 -204 -87 -18
-123 -56 -129 -140 l-5 -62 -80 -76 c-44 -42 -95 -102 -114 -134 -63 -108
-156 -221 -299 -362 -173 -172 -299 -338 -301 -400 -1 -19 -3 -23 -6 -11 -4
13 -17 -2 -55 -60 -117 -182 -276 -344 -463 -469 -71 -48 -152 -106 -180 -129
-109 -89 -359 -311 -520 -461 -93 -87 -222 -197 -285 -243 -63 -47 -121 -92
-128 -101 -7 -9 -15 -14 -18 -12 -3 2 -43 -26 -87 -61 -113 -90 -134 -99 -251
-109 -55 -5 -114 -14 -131 -20 -85 -34 -135 -102 -158 -217 -19 -90 -28 -103
-205 -267 -101 -94 -141 -137 -142 -155 -2 -18 -4 -20 -7 -7 -3 13 -28 -5
-113 -84 -98 -91 -119 -106 -208 -144 -54 -23 -116 -54 -138 -67 -46 -29 -139
-126 -318 -330 -86 -99 -154 -166 -207 -204 -53 -39 -79 -65 -80 -79 0 -16 -2
-17 -7 -4 -6 14 -26 3 -111 -57 -58 -41 -114 -82 -125 -92 -12 -10 -45 -24
-73 -30 -29 -6 -72 -24 -95 -38 -44 -28 -263 -249 -285 -287 -19 -33 -15 -64
11 -105 32 -50 167 -179 200 -192 64 -24 123 -3 227 81 228 185 430 364 473
420 63 82 137 159 147 153 15 -9 21 17 7 33 -11 14 -11 16 2 8 26 -16 59 -14
52 3 -4 11 -2 13 8 7 10 -6 12 -4 7 8 -3 9 -3 16 1 16 22 -4 34 3 29 15 -4 9
2 14 19 14 14 0 21 -5 17 -11 -3 -6 -1 -7 6 -3 6 4 9 11 6 16 -7 12 21 20 34
9 6 -5 9 -6 6 -3 -3 4 1 14 8 22 10 13 9 14 -2 7 -10 -5 -12 -4 -7 4 4 6 15
10 24 9 9 -2 17 2 17 9 0 6 36 37 80 69 44 31 103 76 130 99 28 23 85 67 128
99 74 55 77 58 78 99 l2 42 6 -39 6 -39 98 93 c60 57 118 124 152 176 64 97
109 137 244 219 102 62 351 282 351 311 0 8 4 13 8 11 13 -3 302 274 302 290
0 8 4 12 9 9 5 -3 49 28 97 70 155 132 334 276 365 291 63 32 169 9 185 -39
12 -37 6 -199 -9 -259 -22 -83 -51 -140 -109 -216 -96 -125 -103 -154 -67
-281 17 -62 19 -82 10 -118 -29 -116 -5 -165 179 -364 159 -171 210 -237 278
-354 54 -94 142 -191 231 -254 35 -25 131 -81 213 -124 158 -82 294 -166 368
-228 81 -68 143 -100 260 -136 385 -119 405 -126 581 -217 l177 -90 98 -7 c98
-7 100 -7 264 -88 91 -44 201 -92 245 -107 44 -14 86 -28 93 -30 7 -3 15 -4
18 -4 4 0 11 -5 16 -13 8 -10 9 -10 5 2 -2 8 -10 14 -16 12 -7 -1 -10 2 -7 7
4 5 16 5 30 -2 17 -8 21 -14 13 -20 -8 -6 -7 -7 3 -4 8 2 24 -3 34 -12 11 -9
16 -10 12 -3 -9 16 6 16 23 0 11 -11 12 -10 6 1 -6 11 -2 13 19 9 14 -3 26 -1
26 3 0 5 7 6 15 3 8 -4 12 -11 8 -17 -4 -6 -1 -7 6 -3 7 5 10 15 6 23 -4 13
-3 14 10 3 8 -7 12 -17 9 -24 -3 -6 1 -3 9 7 17 21 31 23 24 3 -5 -11 0 -13
24 -6 18 5 27 5 24 -1 -4 -5 2 -9 11 -9 18 0 110 -66 266 -192 140 -112 316
-240 429 -309 103 -64 139 -100 182 -185 41 -82 57 -170 57 -320 0 -75 4 -143
9 -153 10 -17 6 -41 -22 -151 -9 -38 -33 -67 -158 -196 -125 -128 -149 -157
-154 -190 -18 -106 -42 -149 -140 -254 -38 -42 -90 -109 -114 -150 -27 -47
-77 -107 -130 -160 -47 -46 -85 -88 -83 -93 1 -5 -2 -6 -7 -3 -11 7 -113 -86
-376 -344 -110 -108 -243 -234 -295 -280 -52 -46 -108 -96 -125 -112 -16 -15
-58 -50 -92 -79 -35 -28 -63 -55 -63 -60 0 -5 -6 -9 -13 -9 -8 0 -24 -12 -38
-27 l-24 -28 30 25 c16 14 24 18 17 9 -6 -9 -11 -18 -9 -20 1 -2 0 -3 -2 -2
-8 5 -31 -19 -26 -27 3 -5 1 -12 -5 -15 -6 -4 -9 -3 -8 2 2 4 -1 8 -7 8 -5 0
-9 -5 -9 -12 1 -6 -7 -10 -18 -8 -13 3 -18 0 -15 -9 4 -10 0 -12 -14 -9 -13 4
-19 0 -19 -10 0 -9 -5 -19 -12 -23 -7 -4 -8 -3 -4 4 4 7 3 12 -1 12 -5 0 -14
-14 -20 -31 -8 -20 -16 -28 -24 -23 -9 5 -10 2 -5 -11 5 -15 4 -16 -9 -5 -12
10 -16 8 -26 -14 -7 -14 -15 -23 -19 -21 -4 2 -31 -14 -61 -37 -60 -45 -129
-78 -204 -97 -49 -13 -146 -46 -213 -72 -21 -9 -30 -19 -27 -27 4 -10 0 -12
-11 -8 -22 8 -63 -22 -169 -124 -49 -47 -126 -108 -170 -135 -44 -27 -127 -81
-185 -121 -128 -86 -188 -108 -292 -109 -95 0 -119 15 -168 108 -92 172 -162
176 -316 16 -98 -102 -165 -191 -211 -283 -62 -124 -90 -285 -62 -365 19 -55
172 -115 299 -115 68 -1 83 3 163 41 48 23 189 109 315 191 125 82 270 175
322 207 52 32 97 62 100 65 3 4 15 10 28 14 12 4 22 12 22 18 0 6 6 5 16 -3
13 -11 15 -10 12 5 -2 12 4 20 15 21 9 2 15 -1 11 -6 -3 -5 -10 -6 -16 -3 -7
4 -8 2 -4 -5 4 -6 13 -8 19 -4 12 8 17 9 37 12 6 0 10 9 11 19 0 10 3 12 6 4
7 -19 23 -4 16 16 -3 9 -2 14 2 9 5 -4 20 0 34 9 l26 15 -24 -20 c-13 -12 -19
-21 -13 -21 5 0 15 7 22 15 7 8 17 12 22 9 6 -4 4 4 -2 17 l-13 24 24 -20 c13
-11 21 -16 17 -11 -10 11 33 45 49 39 7 -3 13 0 13 7 0 6 4 9 9 6 24 -15 243
101 312 165 14 13 36 30 50 37 55 29 169 134 207 192 23 34 49 86 58 115 13
41 21 52 30 44 14 -12 21 -2 19 28 -2 15 2 20 13 15 11 -4 13 -2 7 9 -7 12 -6
12 7 1 12 -10 18 -9 28 3 7 8 16 13 20 10 5 -3 18 7 29 22 12 16 20 21 18 13
-2 -8 -2 -11 1 -7 2 4 11 2 20 -5 14 -10 15 -10 5 2 -18 20 -16 35 2 20 12
-10 16 -9 21 4 3 9 12 16 20 16 8 0 14 4 14 10 0 5 -8 7 -17 4 -15 -5 -15 -4
1 6 14 10 20 9 27 -1 8 -11 14 -9 30 11 12 14 23 24 25 22 13 -8 160 73 317
176 51 34 65 47 55 54 -9 7 -6 8 10 5 18 -4 42 13 115 81 147 139 151 142 170
142 10 0 16 3 14 8 -3 4 2 13 10 21 13 12 14 11 9 -10 -6 -20 -5 -21 4 -6 6 9
15 15 19 13 4 -3 17 3 27 12 10 10 46 28 80 41 65 24 113 66 176 156 57 82
100 164 92 177 -4 7 -4 10 1 6 4 -4 40 32 80 80 40 48 123 148 185 222 90 109
122 140 165 162 38 20 69 48 114 104 79 98 102 144 109 218 4 55 11 69 63 138
64 86 114 169 144 238 10 25 26 56 36 70 19 29 25 49 34 105 3 22 12 64 20 95
24 93 38 231 31 305 -11 133 -41 199 -148 332 -40 50 -100 142 -133 204 -91
172 -196 266 -420 374 -105 51 -139 63 -300 105 -66 18 -133 35 -150 40 -53
14 -89 31 -140 65 -27 19 -111 56 -185 83 -146 53 -196 76 -250 117 -26 19
-42 24 -65 20 -29 -5 -30 -5 -5 6 24 12 23 12 -20 19 -25 4 -90 19 -145 34
-97 25 -127 38 -320 138 -64 34 -113 51 -170 61 -74 13 -186 57 -460 182 -429
196 -440 203 -740 469 -177 157 -221 192 -227 178 -5 -14 -7 -13 -7 5 -1 16
-19 34 -60 62 -97 66 -143 136 -181 273 -39 144 -52 286 -53 588 0 325 -3 313
93 432 59 73 80 130 80 214 0 56 3 66 29 92 17 17 50 34 77 41 96 24 153 122
174 301 4 36 8 54 9 40 2 -22 5 -20 26 20 13 25 61 92 107 150 46 58 112 147
148 198 110 162 362 401 511 484 99 56 103 60 194 162 93 106 244 240 385 344
192 142 201 149 324 265 65 62 168 153 229 202 106 87 135 116 239 252 26 34
100 106 165 159 176 147 219 190 291 294 37 53 127 158 203 235 114 117 139
148 149 185 32 118 -41 248 -155 279 -22 6 -42 10 -45 10 -3 -1 -16 -4 -30 -6z
m-5323 -4930 c-2 -16 -4 -5 -4 22 0 28 2 40 4 28 2 -13 2 -35 0 -50z m-511
-825 c3 -4 -1 -5 -10 -4 -8 1 -18 5 -22 8 -3 4 1 5 10 4 8 -1 18 -5 22 -8z
m5203 -1082 c9 -11 9 -16 0 -22 -8 -4 -9 -3 -5 4 4 7 2 12 -3 12 -6 0 -11 5
-11 10 0 14 5 13 19 -4z m1139 -683 c-10 -2 -26 -2 -35 0 -10 3 -2 5 17 5 19
0 27 -2 18 -5z m-873 -2292 c3 -5 2 -12 -3 -15 -5 -3 -9 1 -9 9 0 17 3 19 12
6z m-770 -520 c3 -5 2 -12 -3 -15 -5 -3 -9 1 -9 9 0 17 3 19 12 6z m-115 -45
c0 -2 -7 -7 -16 -10 -8 -3 -12 -2 -9 4 6 10 25 14 25 6z m-37 -36 c4 7 5 7 4
0 -2 -7 -5 -10 -9 -8 -3 2 -16 -6 -29 -17 l-24 -20 18 22 c11 12 16 28 12 35
-3 7 0 5 8 -5 9 -11 17 -14 20 -7z m-963 -745 c0 -12 -19 -12 -23 0 -4 9 -1
12 9 8 7 -3 14 -7 14 -8z"/>
<path d="M11365 8441 c-16 -4 -46 -16 -65 -26 -120 -62 -160 -117 -160 -224 0
-34 -5 -72 -12 -84 -16 -31 -270 -307 -316 -344 -49 -40 -135 -83 -165 -83
-14 0 -39 16 -62 40 -83 85 -206 73 -298 -29 -38 -42 -49 -73 -65 -184 -7 -47
-20 -83 -42 -117 -49 -77 -78 -93 -174 -97 -113 -4 -184 -39 -268 -134 -35
-39 -79 -79 -99 -89 -56 -29 -66 -65 -44 -158 10 -43 25 -93 35 -112 10 -19
25 -58 33 -86 31 -105 63 -141 171 -196 34 -17 111 -62 171 -101 157 -100 226
-131 305 -135 59 -3 69 -1 117 30 94 60 249 203 273 252 23 48 21 98 -4 113
-6 5 -18 27 -26 50 -18 57 -3 105 51 167 46 52 100 86 174 110 141 45 203 186
140 318 -14 29 -36 73 -50 97 -46 81 -34 115 101 269 55 62 116 134 137 160
107 130 156 161 237 147 34 -6 43 -3 79 30 22 20 54 57 71 82 28 43 30 52 30
140 0 114 -12 143 -73 172 -48 23 -154 35 -202 22z"/>
<path d="M14115 8150 c-3 -5 -1 -10 4 -10 6 0 11 5 11 10 0 6 -2 10 -4 10 -3
0 -8 -4 -11 -10z"/>
<path d="M13410 3151 c0 -6 4 -13 10 -16 6 -3 7 1 4 9 -7 18 -14 21 -14 7z"/>
<path d="M6435 2819 c-4 -6 -5 -12 -2 -15 2 -3 7 2 10 11 7 17 1 20 -8 4z"/>
<path d="M5775 2019 c-4 -6 -4 -13 -1 -16 3 -4 6 -1 6 6 0 7 5 9 12 5 7 -4 8
-3 4 4 -9 15 -13 15 -21 1z"/>
</g>
</svg>
